# xmcd CD database file
#
# Track frame offsets:
#	150
#	14883
#	29613
#	44343
#
# Disc length: 785 seconds
#
# Revision: 1
# Processed by: cddbd v1.4PL0 Copyright (c) Steve Scherf et al.
# Submitted via: CDex 1.50Beta7
#
DISCID=33030f04
DTITLE=Mindy McCready - What If I Do
DYEAR=1997
DGENRE=Country
TTITLE0=What If I Do (Radio Mix)
TTITLE1=What If I Do (Radio Mix)
TTITLE2=What If I Do (Radio Mix)
TTITLE3=What If I Do (Attitude Mix)
EXTD=YEAR: 1997
EXTT0=
EXTT1=
EXTT2=
EXTT3=
PLAYORDER=
